<?xml version="1.0" encoding="UTF-8"?>
<!-- Generator: Blender, SVG Export for Grease Pencil - v1.0 -->
<!DOCTYPE svg PUBLIC "-//W3C//DTD SVG 1.1//EN" "http://www.w3.org/Graphics/SVG/1.1/DTD/svg11.dtd">
<svg version="1.0" x="0px" y="0px" xmlns="http://www.w3.org/2000/svg" width="256px" height="192px" viewBox="0 0 256 192">
	<g id="blender_frame_0">
		<g id="blender_object_Sun">
			<!--Layer: Sun-->
			<g id="Sun">
				<polygon fill="#FEF43F" stroke="none" fill-opacity="1" points="234.422272,70.399979 234.290878,66.386421 233.897247,62.390045 233.243073,58.427979 232.331284,54.517181 231.165558,50.674408 229.751038,46.916077 228.093689,43.258331 226.200745,39.716812 224.080185,36.306671 221.741119,33.042526 219.193588,29.938354 216.448517,27.007446 213.517563,24.262344 210.413391,21.714813 207.149277,19.375763 203.739120,17.255188 200.197617,15.362213 196.539856,13.704895 192.781540,12.290375 188.938751,11.124695 185.027939,10.212799 181.065918,9.558685 177.069550,9.165100 173.056000,9.033661 169.042465,9.165070 165.046112,9.558685 161.084030,10.212799 157.173248,11.124695 153.330475,12.290375 149.572159,13.704895 145.914383,15.362213 142.372864,17.255188 138.962708,19.375763 135.698563,21.714798 132.594360,24.262344 129.663513,27.007462 126.918335,29.938385 124.370842,33.042542 122.031754,36.306732 119.911217,39.716888 118.018234,43.258392 116.360886,46.916153 114.946381,50.674469 113.780716,54.517242 112.868828,58.428070 112.214706,62.390121 111.821098,66.386513 111.689697,70.400047 111.821106,74.413628 112.214745,78.409950 112.868896,82.372055 113.780746,86.282822 114.946442,90.125633 116.360954,93.883942 118.018303,97.541718 119.911301,101.083221 122.031883,104.493393 124.370926,107.757523 126.918472,110.861694 129.663589,113.792587 132.594543,116.537674 135.698669,119.085197 138.962830,121.424240 142.372971,123.544777 145.914474,125.437744 149.572266,127.095062 153.330582,128.509583 157.173340,129.675262 161.084106,130.587128 165.046188,131.241257 169.042526,131.634842 173.056061,131.766235 177.069626,131.634842 181.065964,131.241226 185.028030,130.587067 188.938797,129.675217 192.781601,128.509521 196.539856,127.094986 200.197617,125.437698 203.739120,123.544708 207.149277,121.424156 210.413391,119.085083 213.517563,116.537575 216.448517,113.792465 219.193588,110.861580 221.741119,107.757416 224.080185,104.493286 226.200714,101.083145 228.093689,97.541618 229.751007,93.883881 231.165558,90.125565 232.331207,86.282822 233.243073,82.372025 233.897247,78.409950 234.290878,74.413628" />
				<polygon stroke="#000000" stroke-opacity="1" fill="none" stroke-linecap="round" stroke-width="2" points="234.422272,70.399979 234.290878,66.386421 233.897247,62.390045 233.243073,58.427979 232.331284,54.517181 231.165558,50.674408 229.751038,46.916077 228.093689,43.258331 226.200745,39.716812 224.080185,36.306671 221.741119,33.042526 219.193588,29.938354 216.448517,27.007446 213.517563,24.262344 210.413391,21.714813 207.149277,19.375763 203.739120,17.255188 200.197617,15.362213 196.539856,13.704895 192.781540,12.290375 188.938751,11.124695 185.027939,10.212799 181.065918,9.558685 177.069550,9.165100 173.056000,9.033661 169.042465,9.165070 165.046112,9.558685 161.084030,10.212799 157.173248,11.124695 153.330475,12.290375 149.572159,13.704895 145.914383,15.362213 142.372864,17.255188 138.962708,19.375763 135.698563,21.714798 132.594360,24.262344 129.663513,27.007462 126.918335,29.938385 124.370842,33.042542 122.031754,36.306732 119.911217,39.716888 118.018234,43.258392 116.360886,46.916153 114.946381,50.674469 113.780716,54.517242 112.868828,58.428070 112.214706,62.390121 111.821098,66.386513 111.689697,70.400047 111.821106,74.413628 112.214745,78.409950 112.868896,82.372055 113.780746,86.282822 114.946442,90.125633 116.360954,93.883942 118.018303,97.541718 119.911301,101.083221 122.031883,104.493393 124.370926,107.757523 126.918472,110.861694 129.663589,113.792587 132.594543,116.537674 135.698669,119.085197 138.962830,121.424240 142.372971,123.544777 145.914474,125.437744 149.572266,127.095062 153.330582,128.509583 157.173340,129.675262 161.084106,130.587128 165.046188,131.241257 169.042526,131.634842 173.056061,131.766235 177.069626,131.634842 181.065964,131.241226 185.028030,130.587067 188.938797,129.675217 192.781601,128.509521 196.539856,127.094986 200.197617,125.437698 203.739120,123.544708 207.149277,121.424156 210.413391,119.085083 213.517563,116.537575 216.448517,113.792465 219.193588,110.861580 221.741119,107.757416 224.080185,104.493286 226.200714,101.083145 228.093689,97.541618 229.751007,93.883881 231.165558,90.125565 232.331207,86.282822 233.243073,82.372025 233.897247,78.409950 234.290878,74.413628" />
			</g>
		</g>
	</g>
	<g id="blender_frame_0">
		<g id="blender_object_Clouds">
			<!--Layer: Clouds-->
			<g id="Clouds">
				<polygon fill="#FEFEFE" stroke="none" fill-opacity="1" points="43.095993,179.141769 67.072418,179.141769 91.048859,179.141769 115.025284,179.141769 139.001709,179.141769 162.978088,179.141769 186.954544,179.141769 210.930954,178.617035 213.643661,178.276428 216.312317,177.806168 219.113998,177.126007 221.843384,176.253128 224.603439,175.260010 227.302826,174.082626 229.929962,172.726486 232.473602,171.197800 234.922943,169.503403 237.267395,167.650894 239.496933,165.648392 241.602020,163.504669 243.573639,161.228973 245.403381,158.831146 247.083405,156.321457 248.606491,153.710602 249.966125,151.009628 251.156479,148.229980 252.172409,145.383392 253.009735,142.481781 253.664597,139.537338 254.134445,136.562363 254.417206,133.569321 254.511581,130.570557 254.417206,127.578705 254.134445,124.606148 253.664673,121.665268 253.009735,118.768250 252.172409,115.927101 251.156479,113.153641 249.966125,110.459412 248.606491,107.855560 247.083405,105.352982 245.403381,102.962029 243.573639,100.692719 241.602051,98.554504 239.496933,96.556381 237.267395,94.706703 234.922943,93.013275 232.473602,91.483269 229.929962,90.123207 227.302780,88.938881 224.603394,87.935417 221.843353,87.117188 219.034454,86.487854 216.188751,86.050156 213.318390,85.806290 210.435654,85.757462 207.552963,85.904182 204.682602,86.246094 201.836838,86.782082 200.629059,90.461716 201.256775,87.884949 201.666656,85.232460 201.913269,82.562508 201.995590,79.886734 201.913269,77.217072 201.666656,74.564987 201.256775,71.941887 200.685516,69.358910 199.955078,66.826950 199.068771,64.356628 198.030441,61.958130 196.844360,59.641388 195.515732,57.415741 194.050232,55.290192 192.454025,53.273285 190.734055,51.372925 188.897720,49.596619 186.952774,47.951263 184.907639,46.443192 182.770935,45.078140 180.552017,43.861206 178.260239,42.796967 175.905487,41.889282 173.497787,41.146179 171.047470,40.567810 168.565018,40.153198 166.061096,39.903839 163.546387,39.820724 161.031677,39.904205 158.527771,40.153900 156.045319,40.568939 153.595001,41.147705 151.187302,41.888062 148.832535,42.795258 146.540741,43.859772 144.321777,45.077057 142.185150,46.442551 144.630676,49.266602 141.189346,45.952454 137.544571,42.889008 133.711975,40.087891 129.707962,37.559601 125.549683,35.315048 121.254936,33.359650 116.842102,31.695053 112.330124,30.326172 107.738266,29.255539 103.086205,28.487457 98.393875,28.025299 93.681389,27.871063 88.968895,28.025299 84.276558,28.487457 79.624504,29.255493 75.032646,30.326172 70.520645,31.695038 66.107834,33.360199 61.813087,35.317322 57.654793,37.559464 53.650764,40.082748 49.818161,42.885437 46.173386,45.951935 42.732063,49.270660 39.508896,52.828674 36.517715,56.611877 33.771317,60.605026 31.281464,64.791733 29.058800,69.154655 27.112885,73.675392 25.452026,78.334602 24.083313,83.112122 23.012657,87.986984 22.244598,92.937576 21.782455,97.165253 27.696228,94.607140 25.208809,95.776314 22.800423,97.112076 20.481400,98.608887 18.261642,100.260529 16.150681,102.060196 14.157539,104.000412 12.290771,106.073128 10.558350,108.269745 8.967697,110.581100 7.525627,112.997581 6.238335,115.509079 5.111290,118.105103 4.149361,120.774765 3.356636,123.506912 2.736526,126.290009 2.291695,129.112366 2.024040,131.962036 1.934692,134.826981 2.024040,137.695023 2.291702,140.553986 2.736565,143.391663 3.356667,146.195923 4.149391,148.954742 5.111351,151.656219 6.238396,154.288712 7.525703,156.840790 8.967773,159.301331 10.558411,161.659607 12.290863,163.905258 14.157623,166.028320 16.150780,168.019424 18.261742,169.869644 20.481476,171.570618 22.800514,173.114670 25.208885,174.494705 27.696304,175.704315 30.252098,176.737778 32.865326,177.590164 35.524811,178.257233 38.219162,178.735565 40.936836,179.022522 43.666199,179.116302" />
				<polyline stroke="#000000" stroke-opacity="1" fill="none" stroke-linecap="round" stroke-width="2" points="43.095993,179.141769 67.072418,179.141769 91.048859,179.141769 115.025284,179.141769 139.001709,179.141769 162.978088,179.141769 186.954544,179.141769 210.930954,178.617035 213.643661,178.276428 216.312317,177.806168 219.113998,177.126007 221.843384,176.253128 224.603439,175.260010 227.302826,174.082626 229.929962,172.726486 232.473602,171.197800 234.922943,169.503403 237.267395,167.650894 239.496933,165.648392 241.602020,163.504669 243.573639,161.228973 245.403381,158.831146 247.083405,156.321457 248.606491,153.710602 249.966125,151.009628 251.156479,148.229980 252.172409,145.383392 253.009735,142.481781 253.664597,139.537338 254.134445,136.562363 254.417206,133.569321 254.511581,130.570557 254.417206,127.578705 254.134445,124.606148 253.664673,121.665268 253.009735,118.768250 252.172409,115.927101 251.156479,113.153641 249.966125,110.459412 248.606491,107.855560 247.083405,105.352982 245.403381,102.962029 243.573639,100.692719 241.602051,98.554504 239.496933,96.556381 237.267395,94.706703 234.922943,93.013275 232.473602,91.483269 229.929962,90.123207 227.302780,88.938881 224.603394,87.935417 221.843353,87.117188 219.034454,86.487854 216.188751,86.050156 213.318390,85.806290 210.435654,85.757462 207.552963,85.904182 204.682602,86.246094 201.836838,86.782082 200.629059,90.461716 201.256775,87.884949 201.666656,85.232460 201.913269,82.562508 201.995590,79.886734 201.913269,77.217072 201.666656,74.564987 201.256775,71.941887 200.685516,69.358910 199.955078,66.826950 199.068771,64.356628 198.030441,61.958130 196.844360,59.641388 195.515732,57.415741 194.050232,55.290192 192.454025,53.273285 190.734055,51.372925 188.897720,49.596619 186.952774,47.951263 184.907639,46.443192 182.770935,45.078140 180.552017,43.861206 178.260239,42.796967 175.905487,41.889282 173.497787,41.146179 171.047470,40.567810 168.565018,40.153198 166.061096,39.903839 163.546387,39.820724 161.031677,39.904205 158.527771,40.153900 156.045319,40.568939 153.595001,41.147705 151.187302,41.888062 148.832535,42.795258 146.540741,43.859772 144.321777,45.077057 142.185150,46.442551 144.630676,49.266602 141.189346,45.952454 137.544571,42.889008 133.711975,40.087891 129.707962,37.559601 125.549683,35.315048 121.254936,33.359650 116.842102,31.695053 112.330124,30.326172 107.738266,29.255539 103.086205,28.487457 98.393875,28.025299 93.681389,27.871063 88.968895,28.025299 84.276558,28.487457 79.624504,29.255493 75.032646,30.326172 70.520645,31.695038 66.107834,33.360199 61.813087,35.317322 57.654793,37.559464 53.650764,40.082748 49.818161,42.885437 46.173386,45.951935 42.732063,49.270660 39.508896,52.828674 36.517715,56.611877 33.771317,60.605026 31.281464,64.791733 29.058800,69.154655 27.112885,73.675392 25.452026,78.334602 24.083313,83.112122 23.012657,87.986984 22.244598,92.937576 21.782455,97.165253 27.696228,94.607140 25.208809,95.776314 22.800423,97.112076 20.481400,98.608887 18.261642,100.260529 16.150681,102.060196 14.157539,104.000412 12.290771,106.073128 10.558350,108.269745 8.967697,110.581100 7.525627,112.997581 6.238335,115.509079 5.111290,118.105103 4.149361,120.774765 3.356636,123.506912 2.736526,126.290009 2.291695,129.112366 2.024040,131.962036 1.934692,134.826981 2.024040,137.695023 2.291702,140.553986 2.736565,143.391663 3.356667,146.195923 4.149391,148.954742 5.111351,151.656219 6.238396,154.288712 7.525703,156.840790 8.967773,159.301331 10.558411,161.659607 12.290863,163.905258 14.157623,166.028320 16.150780,168.019424 18.261742,169.869644 20.481476,171.570618 22.800514,173.114670 25.208885,174.494705 27.696304,175.704315 30.252098,176.737778 32.865326,177.590164 35.524811,178.257233 38.219162,178.735565 40.936836,179.022522 43.666199,179.116302" />
			</g>
		</g>
	</g>
	<g id="blender_frame_0">
		<g id="blender_object_LargeBird">
			<!--Layer: GP_Layer-->
			<g id="GP_Layer">
				<polygon fill="#282828" stroke="none" fill-opacity="1" points="120.739273,45.938736 119.388367,45.976501 118.034912,46.106186 116.682114,46.328796 115.333115,46.645264 113.991104,47.056595 112.659264,47.563782 111.340775,48.167755 110.038803,48.869507 108.756531,49.669983 107.497154,50.570221 106.263824,51.571152 105.059746,52.673767 103.587860,54.177551 102.290909,55.662933 101.164474,57.136734 100.204147,58.605682 99.405533,60.076630 98.764191,61.556335 98.275742,63.051590 97.935760,64.569191 97.739838,66.115906 97.683563,67.698532 97.762535,69.323891 97.972343,70.998756 97.978241,71.035515 97.994560,71.137115 98.019203,71.290581 98.050095,71.482979 98.085152,71.701286 98.122284,71.932594 98.159424,72.163902 98.194481,72.382233 98.225372,72.574608 98.250015,72.728096 98.266327,72.829674 98.272232,72.866432 98.116714,72.841164 97.961197,72.815872 97.805679,72.790604 97.650162,72.765312 97.494637,72.740044 97.339119,72.714775 97.183601,72.689484 97.028076,72.664215 96.872559,72.638924 96.717041,72.613655 96.561523,72.588364 96.405975,72.563095 92.909454,72.079193 89.280319,71.746239 85.521774,71.575882 81.637009,71.579727 77.629227,71.769379 73.501617,72.156441 69.257385,72.752563 64.899727,73.569305 60.431824,74.618340 55.856880,75.911247 51.178093,77.459633 46.398651,79.275124 47.914864,79.917274 49.616211,80.626785 51.490189,81.403175 53.524307,82.245987 55.706062,83.154709 58.022949,84.128906 60.462486,85.168053 63.012154,86.271721 65.659462,87.439407 68.391907,88.670631 71.197006,89.964935 74.062225,91.321838 74.134384,91.356514 74.333878,91.452347 74.635231,91.597137 75.012985,91.778625 75.441673,91.984589 75.895828,92.202782 76.349976,92.420975 76.778671,92.626945 77.156425,92.808426 77.457779,92.953217 77.657272,93.049072 77.729424,93.083725 77.397224,93.151031 77.065018,93.218338 76.732819,93.285645 76.400620,93.352959 76.068413,93.420273 75.736206,93.487587 75.404007,93.554901 75.071800,93.622192 74.739601,93.689507 74.407394,93.756821 74.075195,93.824135 73.743011,93.891418 69.868500,94.789627 65.890602,95.947746 61.824646,97.382195 57.685997,99.109375 53.489990,101.145699 49.251968,103.507576 44.987282,106.211411 40.711281,109.273621 36.439301,112.710617 32.186699,116.538803 27.968811,120.774582 23.801003,125.434387 25.808899,125.267181 28.114220,125.060226 30.692390,124.823944 33.518829,124.568817 36.568962,124.305275 39.818207,124.043777 43.241982,123.794769 46.815720,123.568695 50.514832,123.376022 54.314751,123.227188 58.190887,123.132645 62.118668,123.102844 64.308411,123.118919 66.487724,123.161903 68.651489,123.233955 70.794594,123.337250 72.911903,123.473961 74.998306,123.646255 77.048676,123.856308 79.057915,124.106293 81.020874,124.398369 82.932449,124.734726 84.787521,125.117508 86.580948,125.548935 88.325630,126.052383 90.026718,126.641815 91.667320,127.305206 93.230576,128.030472 94.699623,128.805588 96.057587,129.618500 97.287590,130.457153 98.372772,131.309494 99.296265,132.163498 100.041199,133.007095 100.590691,133.828247 100.927879,134.614883 101.124550,135.351410 101.265915,136.035294 101.355576,136.674255 101.397125,137.276093 101.394165,137.848541 101.350296,138.399323 101.269119,138.936218 101.154243,139.466980 101.009247,139.999344 100.837753,140.541061 100.643356,141.099884 100.429626,141.683563 100.169548,142.306793 99.835388,142.973190 99.429932,143.674179 98.955917,144.401123 98.416138,145.145447 97.813339,145.898499 97.150299,146.651718 96.429779,147.396454 95.654564,148.124146 94.827393,148.826126 93.951057,149.493835 93.028305,150.118622 92.062584,150.712845 91.057411,151.294388 90.015663,151.863220 88.940216,152.419296 87.833946,152.962585 86.699738,153.493042 85.540466,154.010620 84.359009,154.515289 83.158249,155.006989 81.941063,155.485718 80.710327,155.951416 79.468933,156.404037 76.967827,157.268997 74.462822,158.078339 71.976715,158.830139 69.532288,159.522461 67.152351,160.153351 64.859688,160.720886 62.677094,161.223145 60.627365,161.658203 58.733299,162.024109 57.017685,162.318924 55.503319,162.540741 54.212997,162.687592 53.976288,162.716263 53.762459,162.756210 53.569489,162.807724 53.395340,162.871063 53.237999,162.946472 53.095428,163.034195 52.965614,163.134521 52.846519,163.247665 52.736122,163.373932 52.632401,163.513535 52.533318,163.666748 52.436874,163.833832 52.344536,164.016022 52.259415,164.213531 52.181519,164.425201 52.110901,164.649811 52.047562,164.886154 51.991547,165.133057 51.942871,165.389267 51.901566,165.653641 51.867668,165.924927 51.841202,166.201965 51.822182,166.483521 51.810654,166.768402 51.805992,167.135574 51.812675,167.474167 51.830414,167.786041 51.858887,168.073074 51.897820,168.337143 51.946915,168.580109 52.005859,168.803848 52.074364,169.010223 52.152145,169.201111 52.238884,169.378372 52.334297,169.543884 52.438095,169.699524 52.550941,169.843277 52.673119,169.972473 52.803848,170.087738 52.942368,170.189621 53.087906,170.278717 53.239685,170.355621 53.396942,170.420898 53.558899,170.475159 53.724808,170.518951 53.893875,170.552887 54.065331,170.577530 54.238426,170.593475 61.441078,170.901672 68.339256,170.854843 74.937820,170.489273 81.241653,169.841278 87.255615,168.947144 92.984581,167.843170 98.433411,166.565628 103.606987,165.150818 108.510162,163.635040 113.147827,162.054596 117.524834,160.445755 121.646057,158.844833 126.098694,156.573074 130.261444,153.993408 134.126221,151.140091 137.684906,148.047424 140.929428,144.749649 143.851669,141.281036 146.443542,137.675903 148.696945,133.968475 150.603790,130.193054 152.155975,126.383904 153.345398,122.575287 154.163956,118.801491 154.519501,116.552330 154.797607,114.488335 155.000854,112.595261 155.131775,110.858856 155.192947,109.264877 155.186890,107.799072 155.116150,106.447197 154.983322,105.194992 154.790894,104.028229 154.541473,102.932648 154.237579,101.894005 153.881775,100.898048 153.472046,99.925697 153.006210,98.959114 152.486404,97.985794 151.914749,96.993225 151.293365,95.968895 150.624420,94.900299 149.910004,93.774918 149.152267,92.580231 148.353348,91.303757 147.515366,89.932938 146.640442,88.455307 145.730728,86.858345 145.156998,85.792877 144.625244,84.731483 144.133575,83.674896 143.680054,82.623795 143.262802,81.578911 142.879913,80.540977 142.529465,79.510689 142.209579,78.488800 141.918335,77.475998 141.653839,76.473015 141.414169,75.480537 141.197449,74.499321 141.194016,74.483162 141.184509,74.438461 141.170166,74.370941 141.152191,74.286278 141.131775,74.190216 141.110168,74.088455 141.088547,73.986694 141.068146,73.890633 141.050156,73.805992 141.035812,73.738449 141.026321,73.693748 141.022888,73.677589 141.077560,73.633804 141.132233,73.590019 141.186920,73.546211 141.241592,73.502426 141.296265,73.458641 141.350952,73.414833 141.405624,73.371048 141.460297,73.327263 141.514984,73.283455 141.569656,73.239670 141.624329,73.195885 141.679016,73.152077 143.353821,71.778374 144.968094,70.391167 146.513947,68.997803 147.983475,67.605652 149.368835,66.222107 150.662140,64.854515 151.855515,63.510254 152.941101,62.196655 153.910995,60.921112 154.757324,59.690979 155.472244,58.513672 156.047913,57.396469 154.953735,56.369537 153.741730,55.481094 152.419403,54.725311 150.994232,54.096344 149.473755,53.588348 147.865433,53.195496 146.176788,52.911957 144.415314,52.731873 142.588516,52.649445 140.703873,52.658783 138.768906,52.754089 136.791107,52.929504 136.778198,52.930878 136.742523,52.934570 136.688599,52.940216 136.621017,52.947281 136.544312,52.955292 136.463058,52.963776 136.381805,52.972275 136.305115,52.980286 136.237518,52.987335 136.183609,52.992966 136.147919,52.996704 136.134979,52.998077 136.096466,52.958817 136.057953,52.919556 136.019440,52.880310 135.980927,52.841064 135.942413,52.801804 135.903900,52.762543 135.865387,52.723297 135.826859,52.684052 135.788345,52.644791 135.749832,52.605530 135.711304,52.566284 135.672745,52.527069 134.587891,51.487518 133.463455,50.536240 132.302582,49.673523 131.108475,48.899643 129.884277,48.214844 128.633209,47.619446 127.358398,47.113632 126.063034,46.697754 124.750275,46.372040 123.423325,46.136749 122.085327,45.992157 120.739471,45.938538 120.739471,45.938538 120.739456,45.938553 120.739441,45.938568 120.739426,45.938599 120.739395,45.938629 120.739372,45.938644 120.739342,45.938660 120.739319,45.938690 120.739304,45.938721 120.739281,45.938736 120.739273,45.938736 120.739258,45.938736" />
				<polygon stroke="#000000" stroke-opacity="1" fill="none" stroke-linecap="round" stroke-width="2" points="120.739273,45.938736 119.388367,45.976501 118.034912,46.106186 116.682114,46.328796 115.333115,46.645264 113.991104,47.056595 112.659264,47.563782 111.340775,48.167755 110.038803,48.869507 108.756531,49.669983 107.497154,50.570221 106.263824,51.571152 105.059746,52.673767 103.587860,54.177551 102.290909,55.662933 101.164474,57.136734 100.204147,58.605682 99.405533,60.076630 98.764191,61.556335 98.275742,63.051590 97.935760,64.569191 97.739838,66.115906 97.683563,67.698532 97.762535,69.323891 97.972343,70.998756 97.978241,71.035515 97.994560,71.137115 98.019203,71.290581 98.050095,71.482979 98.085152,71.701286 98.122284,71.932594 98.159424,72.163902 98.194481,72.382233 98.225372,72.574608 98.250015,72.728096 98.266327,72.829674 98.272232,72.866432 98.116714,72.841164 97.961197,72.815872 97.805679,72.790604 97.650162,72.765312 97.494637,72.740044 97.339119,72.714775 97.183601,72.689484 97.028076,72.664215 96.872559,72.638924 96.717041,72.613655 96.561523,72.588364 96.405975,72.563095 92.909454,72.079193 89.280319,71.746239 85.521774,71.575882 81.637009,71.579727 77.629227,71.769379 73.501617,72.156441 69.257385,72.752563 64.899727,73.569305 60.431824,74.618340 55.856880,75.911247 51.178093,77.459633 46.398651,79.275124 47.914864,79.917274 49.616211,80.626785 51.490189,81.403175 53.524307,82.245987 55.706062,83.154709 58.022949,84.128906 60.462486,85.168053 63.012154,86.271721 65.659462,87.439407 68.391907,88.670631 71.197006,89.964935 74.062225,91.321838 74.134384,91.356514 74.333878,91.452347 74.635231,91.597137 75.012985,91.778625 75.441673,91.984589 75.895828,92.202782 76.349976,92.420975 76.778671,92.626945 77.156425,92.808426 77.457779,92.953217 77.657272,93.049072 77.729424,93.083725 77.397224,93.151031 77.065018,93.218338 76.732819,93.285645 76.400620,93.352959 76.068413,93.420273 75.736206,93.487587 75.404007,93.554901 75.071800,93.622192 74.739601,93.689507 74.407394,93.756821 74.075195,93.824135 73.743011,93.891418 69.868500,94.789627 65.890602,95.947746 61.824646,97.382195 57.685997,99.109375 53.489990,101.145699 49.251968,103.507576 44.987282,106.211411 40.711281,109.273621 36.439301,112.710617 32.186699,116.538803 27.968811,120.774582 23.801003,125.434387 25.808899,125.267181 28.114220,125.060226 30.692390,124.823944 33.518829,124.568817 36.568962,124.305275 39.818207,124.043777 43.241982,123.794769 46.815720,123.568695 50.514832,123.376022 54.314751,123.227188 58.190887,123.132645 62.118668,123.102844 64.308411,123.118919 66.487724,123.161903 68.651489,123.233955 70.794594,123.337250 72.911903,123.473961 74.998306,123.646255 77.048676,123.856308 79.057915,124.106293 81.020874,124.398369 82.932449,124.734726 84.787521,125.117508 86.580948,125.548935 88.325630,126.052383 90.026718,126.641815 91.667320,127.305206 93.230576,128.030472 94.699623,128.805588 96.057587,129.618500 97.287590,130.457153 98.372772,131.309494 99.296265,132.163498 100.041199,133.007095 100.590691,133.828247 100.927879,134.614883 101.124550,135.351410 101.265915,136.035294 101.355576,136.674255 101.397125,137.276093 101.394165,137.848541 101.350296,138.399323 101.269119,138.936218 101.154243,139.466980 101.009247,139.999344 100.837753,140.541061 100.643356,141.099884 100.429626,141.683563 100.169548,142.306793 99.835388,142.973190 99.429932,143.674179 98.955917,144.401123 98.416138,145.145447 97.813339,145.898499 97.150299,146.651718 96.429779,147.396454 95.654564,148.124146 94.827393,148.826126 93.951057,149.493835 93.028305,150.118622 92.062584,150.712845 91.057411,151.294388 90.015663,151.863220 88.940216,152.419296 87.833946,152.962585 86.699738,153.493042 85.540466,154.010620 84.359009,154.515289 83.158249,155.006989 81.941063,155.485718 80.710327,155.951416 79.468933,156.404037 76.967827,157.268997 74.462822,158.078339 71.976715,158.830139 69.532288,159.522461 67.152351,160.153351 64.859688,160.720886 62.677094,161.223145 60.627365,161.658203 58.733299,162.024109 57.017685,162.318924 55.503319,162.540741 54.212997,162.687592 53.976288,162.716263 53.762459,162.756210 53.569489,162.807724 53.395340,162.871063 53.237999,162.946472 53.095428,163.034195 52.965614,163.134521 52.846519,163.247665 52.736122,163.373932 52.632401,163.513535 52.533318,163.666748 52.436874,163.833832 52.344536,164.016022 52.259415,164.213531 52.181519,164.425201 52.110901,164.649811 52.047562,164.886154 51.991547,165.133057 51.942871,165.389267 51.901566,165.653641 51.867668,165.924927 51.841202,166.201965 51.822182,166.483521 51.810654,166.768402 51.805992,167.135574 51.812675,167.474167 51.830414,167.786041 51.858887,168.073074 51.897820,168.337143 51.946915,168.580109 52.005859,168.803848 52.074364,169.010223 52.152145,169.201111 52.238884,169.378372 52.334297,169.543884 52.438095,169.699524 52.550941,169.843277 52.673119,169.972473 52.803848,170.087738 52.942368,170.189621 53.087906,170.278717 53.239685,170.355621 53.396942,170.420898 53.558899,170.475159 53.724808,170.518951 53.893875,170.552887 54.065331,170.577530 54.238426,170.593475 61.441078,170.901672 68.339256,170.854843 74.937820,170.489273 81.241653,169.841278 87.255615,168.947144 92.984581,167.843170 98.433411,166.565628 103.606987,165.150818 108.510162,163.635040 113.147827,162.054596 117.524834,160.445755 121.646057,158.844833 126.098694,156.573074 130.261444,153.993408 134.126221,151.140091 137.684906,148.047424 140.929428,144.749649 143.851669,141.281036 146.443542,137.675903 148.696945,133.968475 150.603790,130.193054 152.155975,126.383904 153.345398,122.575287 154.163956,118.801491 154.519501,116.552330 154.797607,114.488335 155.000854,112.595261 155.131775,110.858856 155.192947,109.264877 155.186890,107.799072 155.116150,106.447197 154.983322,105.194992 154.790894,104.028229 154.541473,102.932648 154.237579,101.894005 153.881775,100.898048 153.472046,99.925697 153.006210,98.959114 152.486404,97.985794 151.914749,96.993225 151.293365,95.968895 150.624420,94.900299 149.910004,93.774918 149.152267,92.580231 148.353348,91.303757 147.515366,89.932938 146.640442,88.455307 145.730728,86.858345 145.156998,85.792877 144.625244,84.731483 144.133575,83.674896 143.680054,82.623795 143.262802,81.578911 142.879913,80.540977 142.529465,79.510689 142.209579,78.488800 141.918335,77.475998 141.653839,76.473015 141.414169,75.480537 141.197449,74.499321 141.194016,74.483162 141.184509,74.438461 141.170166,74.370941 141.152191,74.286278 141.131775,74.190216 141.110168,74.088455 141.088547,73.986694 141.068146,73.890633 141.050156,73.805992 141.035812,73.738449 141.026321,73.693748 141.022888,73.677589 141.077560,73.633804 141.132233,73.590019 141.186920,73.546211 141.241592,73.502426 141.296265,73.458641 141.350952,73.414833 141.405624,73.371048 141.460297,73.327263 141.514984,73.283455 141.569656,73.239670 141.624329,73.195885 141.679016,73.152077 143.353821,71.778374 144.968094,70.391167 146.513947,68.997803 147.983475,67.605652 149.368835,66.222107 150.662140,64.854515 151.855515,63.510254 152.941101,62.196655 153.910995,60.921112 154.757324,59.690979 155.472244,58.513672 156.047913,57.396469 154.953735,56.369537 153.741730,55.481094 152.419403,54.725311 150.994232,54.096344 149.473755,53.588348 147.865433,53.195496 146.176788,52.911957 144.415314,52.731873 142.588516,52.649445 140.703873,52.658783 138.768906,52.754089 136.791107,52.929504 136.778198,52.930878 136.742523,52.934570 136.688599,52.940216 136.621017,52.947281 136.544312,52.955292 136.463058,52.963776 136.381805,52.972275 136.305115,52.980286 136.237518,52.987335 136.183609,52.992966 136.147919,52.996704 136.134979,52.998077 136.096466,52.958817 136.057953,52.919556 136.019440,52.880310 135.980927,52.841064 135.942413,52.801804 135.903900,52.762543 135.865387,52.723297 135.826859,52.684052 135.788345,52.644791 135.749832,52.605530 135.711304,52.566284 135.672745,52.527069 134.587891,51.487518 133.463455,50.536240 132.302582,49.673523 131.108475,48.899643 129.884277,48.214844 128.633209,47.619446 127.358398,47.113632 126.063034,46.697754 124.750275,46.372040 123.423325,46.136749 122.085327,45.992157 120.739471,45.938538 120.739471,45.938538 120.739456,45.938553 120.739441,45.938568 120.739426,45.938599 120.739395,45.938629 120.739372,45.938644 120.739342,45.938660 120.739319,45.938690 120.739304,45.938721 120.739281,45.938736 120.739273,45.938736 120.739258,45.938736" />
				<polygon fill="#FEFEFE" stroke="none" fill-opacity="1" points="123.131035,56.080948 123.710068,56.105743 124.273338,56.196304 124.816582,56.349365 125.335526,56.561508 125.825912,56.829391 126.283470,57.149689 126.703911,57.518982 127.082970,57.933975 127.416405,58.391281 127.699913,58.887573 127.929245,59.419418 128.100113,59.983551 128.218002,60.664627 128.244568,61.338745 128.184143,61.998657 128.041122,62.637054 127.819839,63.246674 127.524643,63.820190 127.159897,64.350380 126.729950,64.829910 126.239159,65.251511 125.691895,65.607925 125.092499,65.891853 124.445328,66.096016 123.776337,66.210136 123.113388,66.231468 122.463654,66.164497 121.834373,66.013733 121.232727,65.783661 120.665924,65.478745 120.141174,65.103493 119.665672,64.662392 119.246628,64.159904 118.891228,63.600555 118.606682,62.988800 118.400200,62.329132 118.282364,61.648071 118.255829,60.973907 118.316254,60.314026 118.459305,59.675598 118.680588,59.066010 118.975784,58.492493 119.340530,57.962311 119.770470,57.482788 120.261261,57.061157 120.808548,56.704742 121.407974,56.420807 122.055191,56.216644 122.143456,56.196259 122.232056,56.177521 122.320969,56.160400 122.410156,56.144943 122.499619,56.131134 122.589310,56.118988 122.679199,56.108490 122.769302,56.099640 122.859543,56.092468 122.949936,56.086975 123.040451,56.083130 123.126511,56.081055" />
				<polygon stroke="#000000" stroke-opacity="1" fill="none" stroke-linecap="round" stroke-width="2" points="123.131035,56.080948 123.710068,56.105743 124.273338,56.196304 124.816582,56.349365 125.335526,56.561508 125.825912,56.829391 126.283470,57.149689 126.703911,57.518982 127.082970,57.933975 127.416405,58.391281 127.699913,58.887573 127.929245,59.419418 128.100113,59.983551 128.218002,60.664627 128.244568,61.338745 128.184143,61.998657 128.041122,62.637054 127.819839,63.246674 127.524643,63.820190 127.159897,64.350380 126.729950,64.829910 126.239159,65.251511 125.691895,65.607925 125.092499,65.891853 124.445328,66.096016 123.776337,66.210136 123.113388,66.231468 122.463654,66.164497 121.834373,66.013733 121.232727,65.783661 120.665924,65.478745 120.141174,65.103493 119.665672,64.662392 119.246628,64.159904 118.891228,63.600555 118.606682,62.988800 118.400200,62.329132 118.282364,61.648071 118.255829,60.973907 118.316254,60.314026 118.459305,59.675598 118.680588,59.066010 118.975784,58.492493 119.340530,57.962311 119.770470,57.482788 120.261261,57.061157 120.808548,56.704742 121.407974,56.420807 122.055191,56.216644 122.143456,56.196259 122.232056,56.177521 122.320969,56.160400 122.410156,56.144943 122.499619,56.131134 122.589310,56.118988 122.679199,56.108490 122.769302,56.099640 122.859543,56.092468 122.949936,56.086975 123.040451,56.083130 123.126511,56.081055" />
			</g>
		</g>
	</g>
	<g id="blender_frame_0">
		<g id="blender_object_SmallBird">
			<!--Layer: GP_Layer-->
			<g id="GP_Layer">
				<polygon fill="#C2C2C2" stroke="none" fill-opacity="1" points="170.307709,103.192398 170.304077,103.192444 170.300476,103.192467 170.296906,103.192482 170.293381,103.192490 170.289856,103.192482 170.286346,103.192467 170.282837,103.192459 170.279312,103.192436 170.275787,103.192413 170.272217,103.192406 170.268616,103.192398 170.264984,103.192398 170.048050,103.889931 169.840714,104.598038 169.644180,105.317352 169.459686,106.048500 169.288452,106.792099 169.131744,107.548759 168.990753,108.319115 168.866699,109.103790 168.760864,109.903412 168.674438,110.718597 168.608643,111.549957 168.564743,112.398132 168.520859,113.955902 168.506500,115.418388 168.513672,116.795189 168.534424,118.095932 168.560776,119.330231 168.584778,120.507690 168.598465,121.637939 168.593857,122.730591 168.562973,123.795273 168.497864,124.841583 168.390579,125.879135 168.233124,126.917572 168.016602,127.959641 167.733017,129.007339 167.375610,130.068985 166.937683,131.152893 166.412537,132.267380 165.793457,133.420776 165.073761,134.621384 164.246704,135.877518 163.305603,137.197525 162.243744,138.589691 161.054413,140.062347 159.730927,141.623810 157.993652,143.501114 156.102615,145.298645 154.065582,147.008759 151.890396,148.623886 149.584839,150.136383 147.156723,151.538681 144.613861,152.823151 141.964050,153.982162 139.215118,155.008148 136.374847,155.893494 133.451050,156.630554 130.451538,157.211761 129.884155,157.569763 129.311523,157.922668 128.733673,158.270370 128.150604,158.612793 127.562302,158.949860 126.968811,159.281479 126.370117,159.607544 125.766228,159.927979 125.157150,160.242691 124.542892,160.551590 123.923454,160.854584 123.298828,161.151596 125.668510,161.970917 128.047607,162.652222 130.427490,163.197601 132.799561,163.609116 135.155197,163.888840 137.485794,164.038849 139.782745,164.061249 142.037460,163.958084 144.241302,163.731430 146.385651,163.383392 148.461929,162.916016 150.461517,162.331390 153.614380,161.221741 156.224548,160.139221 158.368866,159.057785 160.124084,157.951401 161.567047,156.794052 162.774567,155.559692 163.823410,154.222305 164.790405,152.755844 165.752380,151.134277 166.786102,149.331558 167.968414,147.321686 169.376099,145.078598 169.869217,144.347031 170.373871,143.643860 170.889038,142.968048 171.413712,142.318542 171.946899,141.694305 172.487549,141.094315 173.034683,140.517502 173.587280,139.962860 174.144318,139.429321 174.704803,138.915863 175.267685,138.421432 175.832001,137.945007 177.437302,138.624695 179.030640,139.258240 180.604050,139.841278 182.149567,140.369537 183.659241,140.838684 185.125092,141.244415 186.539139,141.582382 187.893463,141.848297 189.180069,142.037857 190.391022,142.146729 191.518295,142.170593 192.554001,142.105164 192.996979,140.859070 193.270782,139.584030 193.385345,138.283890 193.350616,136.962448 193.176483,135.623520 192.872894,134.270920 192.449768,132.908447 191.917053,131.539932 191.284653,130.169174 190.562500,128.799988 189.760529,127.436203 188.888641,126.081604 189.475388,123.783165 189.758133,121.504944 189.743820,119.267685 189.439362,117.092117 188.851715,114.998985 187.987793,113.009018 186.854568,111.142952 185.458923,109.421532 183.807861,107.865494 181.908249,106.495575 179.767059,105.332504 177.391235,104.397034 176.747009,104.193848 176.113495,104.009415 175.490417,103.843681 174.877502,103.696632 174.274475,103.568222 173.681061,103.458435 173.097015,103.367233 172.522034,103.294586 171.955872,103.240463 171.398239,103.204826 170.848877,103.187668 170.307495,103.188942 170.307495,103.189011 170.307526,103.189201 170.307526,103.189484 170.307556,103.189842 170.307587,103.190247 170.307602,103.190674 170.307632,103.191101 170.307648,103.191513 170.307678,103.191864 170.307693,103.192154 170.307709,103.192345 170.307709,103.192406" />
				<polygon stroke="#000000" stroke-opacity="1" fill="none" stroke-linecap="round" stroke-width="2" points="170.307709,103.192398 170.304077,103.192444 170.300476,103.192467 170.296906,103.192482 170.293381,103.192490 170.289856,103.192482 170.286346,103.192467 170.282837,103.192459 170.279312,103.192436 170.275787,103.192413 170.272217,103.192406 170.268616,103.192398 170.264984,103.192398 170.048050,103.889931 169.840714,104.598038 169.644180,105.317352 169.459686,106.048500 169.288452,106.792099 169.131744,107.548759 168.990753,108.319115 168.866699,109.103790 168.760864,109.903412 168.674438,110.718597 168.608643,111.549957 168.564743,112.398132 168.520859,113.955902 168.506500,115.418388 168.513672,116.795189 168.534424,118.095932 168.560776,119.330231 168.584778,120.507690 168.598465,121.637939 168.593857,122.730591 168.562973,123.795273 168.497864,124.841583 168.390579,125.879135 168.233124,126.917572 168.016602,127.959641 167.733017,129.007339 167.375610,130.068985 166.937683,131.152893 166.412537,132.267380 165.793457,133.420776 165.073761,134.621384 164.246704,135.877518 163.305603,137.197525 162.243744,138.589691 161.054413,140.062347 159.730927,141.623810 157.993652,143.501114 156.102615,145.298645 154.065582,147.008759 151.890396,148.623886 149.584839,150.136383 147.156723,151.538681 144.613861,152.823151 141.964050,153.982162 139.215118,155.008148 136.374847,155.893494 133.451050,156.630554 130.451538,157.211761 129.884155,157.569763 129.311523,157.922668 128.733673,158.270370 128.150604,158.612793 127.562302,158.949860 126.968811,159.281479 126.370117,159.607544 125.766228,159.927979 125.157150,160.242691 124.542892,160.551590 123.923454,160.854584 123.298828,161.151596 125.668510,161.970917 128.047607,162.652222 130.427490,163.197601 132.799561,163.609116 135.155197,163.888840 137.485794,164.038849 139.782745,164.061249 142.037460,163.958084 144.241302,163.731430 146.385651,163.383392 148.461929,162.916016 150.461517,162.331390 153.614380,161.221741 156.224548,160.139221 158.368866,159.057785 160.124084,157.951401 161.567047,156.794052 162.774567,155.559692 163.823410,154.222305 164.790405,152.755844 165.752380,151.134277 166.786102,149.331558 167.968414,147.321686 169.376099,145.078598 169.869217,144.347031 170.373871,143.643860 170.889038,142.968048 171.413712,142.318542 171.946899,141.694305 172.487549,141.094315 173.034683,140.517502 173.587280,139.962860 174.144318,139.429321 174.704803,138.915863 175.267685,138.421432 175.832001,137.945007 177.437302,138.624695 179.030640,139.258240 180.604050,139.841278 182.149567,140.369537 183.659241,140.838684 185.125092,141.244415 186.539139,141.582382 187.893463,141.848297 189.180069,142.037857 190.391022,142.146729 191.518295,142.170593 192.554001,142.105164 192.996979,140.859070 193.270782,139.584030 193.385345,138.283890 193.350616,136.962448 193.176483,135.623520 192.872894,134.270920 192.449768,132.908447 191.917053,131.539932 191.284653,130.169174 190.562500,128.799988 189.760529,127.436203 188.888641,126.081604 189.475388,123.783165 189.758133,121.504944 189.743820,119.267685 189.439362,117.092117 188.851715,114.998985 187.987793,113.009018 186.854568,111.142952 185.458923,109.421532 183.807861,107.865494 181.908249,106.495575 179.767059,105.332504 177.391235,104.397034 176.747009,104.193848 176.113495,104.009415 175.490417,103.843681 174.877502,103.696632 174.274475,103.568222 173.681061,103.458435 173.097015,103.367233 172.522034,103.294586 171.955872,103.240463 171.398239,103.204826 170.848877,103.187668 170.307495,103.188942 170.307495,103.189011 170.307526,103.189201 170.307526,103.189484 170.307556,103.189842 170.307587,103.190247 170.307602,103.190674 170.307632,103.191101 170.307648,103.191513 170.307678,103.191864 170.307693,103.192154 170.307709,103.192345 170.307709,103.192406" />
				<polygon fill="#FEFEFE" stroke="none" fill-opacity="1" points="177.781464,116.710060 177.918228,116.709671 178.054626,116.714180 178.190491,116.723564 178.325745,116.737793 178.460205,116.756851 178.593781,116.780708 178.726334,116.809341 178.857727,116.842712 178.987839,116.880806 179.116531,116.923599 179.243683,116.971062 179.369186,117.023170 179.492630,117.079735 179.613678,117.140640 179.732193,117.205811 179.848099,117.275154 179.961288,117.348602 180.071655,117.426086 180.179108,117.507500 180.283539,117.592789 180.384811,117.681870 180.482864,117.774658 180.577576,117.871078 180.668823,117.971046 180.826752,118.163216 180.970642,118.364471 181.100250,118.574051 181.215332,118.791206 181.315643,119.015182 181.400925,119.245239 181.470917,119.480606 181.525391,119.720543 181.564056,119.964294 181.586731,120.211113 181.593094,120.460236 181.582932,120.710915 181.556168,120.960686 181.513245,121.207108 181.454498,121.449448 181.380325,121.687004 181.291046,121.919044 181.187042,122.144859 181.068665,122.363724 180.936279,122.574928 180.790222,122.777740 180.630890,122.971466 180.458603,123.155357 180.273727,123.328712 180.078125,123.489685 179.873688,123.636856 179.661163,123.769943 179.441345,123.888695 179.214935,123.992844 178.982727,124.082115 178.745468,124.156250 178.503906,124.214989 178.258820,124.258057 178.010941,124.285194 177.761032,124.296143 177.509857,124.290627 177.259979,124.268585 177.013763,124.230370 176.771912,124.176315 176.535156,124.106781 176.304184,124.022095 176.079727,123.922607 175.862503,123.808662 175.653214,123.680603 175.452591,123.538773 175.261337,123.383514 175.080170,123.215179 174.909760,123.034119 174.751831,122.841949 174.607956,122.640694 174.478333,122.431114 174.363266,122.213959 174.262970,121.989983 174.177689,121.759933 174.107697,121.524559 174.053253,121.284622 174.014603,121.040871 173.991974,120.794052 173.985641,120.544930 173.995850,120.294250 174.022629,120.044472 174.065552,119.798042 174.124283,119.555679 174.198471,119.318108 174.287735,119.086052 174.391724,118.860222 174.510071,118.641342 174.642456,118.430138 174.788483,118.227325 174.947784,118.033623 175.120041,117.849754 175.304855,117.676453 175.480835,117.530731 175.664200,117.396133 175.854370,117.272881 176.050827,117.161194 176.252975,117.061279 176.460297,116.973373 176.672211,116.897675 176.888168,116.834419 177.107635,116.783813 177.330032,116.746071 177.554810,116.721413 177.770111,116.710625" />
				<polygon stroke="#000000" stroke-opacity="1" fill="none" stroke-linecap="round" stroke-width="2" points="177.781464,116.710060 177.918228,116.709671 178.054626,116.714180 178.190491,116.723564 178.325745,116.737793 178.460205,116.756851 178.593781,116.780708 178.726334,116.809341 178.857727,116.842712 178.987839,116.880806 179.116531,116.923599 179.243683,116.971062 179.369186,117.023170 179.492630,117.079735 179.613678,117.140640 179.732193,117.205811 179.848099,117.275154 179.961288,117.348602 180.071655,117.426086 180.179108,117.507500 180.283539,117.592789 180.384811,117.681870 180.482864,117.774658 180.577576,117.871078 180.668823,117.971046 180.826752,118.163216 180.970642,118.364471 181.100250,118.574051 181.215332,118.791206 181.315643,119.015182 181.400925,119.245239 181.470917,119.480606 181.525391,119.720543 181.564056,119.964294 181.586731,120.211113 181.593094,120.460236 181.582932,120.710915 181.556168,120.960686 181.513245,121.207108 181.454498,121.449448 181.380325,121.687004 181.291046,121.919044 181.187042,122.144859 181.068665,122.363724 180.936279,122.574928 180.790222,122.777740 180.630890,122.971466 180.458603,123.155357 180.273727,123.328712 180.078125,123.489685 179.873688,123.636856 179.661163,123.769943 179.441345,123.888695 179.214935,123.992844 178.982727,124.082115 178.745468,124.156250 178.503906,124.214989 178.258820,124.258057 178.010941,124.285194 177.761032,124.296143 177.509857,124.290627 177.259979,124.268585 177.013763,124.230370 176.771912,124.176315 176.535156,124.106781 176.304184,124.022095 176.079727,123.922607 175.862503,123.808662 175.653214,123.680603 175.452591,123.538773 175.261337,123.383514 175.080170,123.215179 174.909760,123.034119 174.751831,122.841949 174.607956,122.640694 174.478333,122.431114 174.363266,122.213959 174.262970,121.989983 174.177689,121.759933 174.107697,121.524559 174.053253,121.284622 174.014603,121.040871 173.991974,120.794052 173.985641,120.544930 173.995850,120.294250 174.022629,120.044472 174.065552,119.798042 174.124283,119.555679 174.198471,119.318108 174.287735,119.086052 174.391724,118.860222 174.510071,118.641342 174.642456,118.430138 174.788483,118.227325 174.947784,118.033623 175.120041,117.849754 175.304855,117.676453 175.480835,117.530731 175.664200,117.396133 175.854370,117.272881 176.050827,117.161194 176.252975,117.061279 176.460297,116.973373 176.672211,116.897675 176.888168,116.834419 177.107635,116.783813 177.330032,116.746071 177.554810,116.721413 177.770111,116.710625" />
			</g>
		</g>
	</g>
	<g id="blender_frame_0">
		<g id="blender_object_MidBird">
			<!--Layer: GP_Layer-->
			<g id="GP_Layer">
				<polygon fill="#757575" stroke="none" fill-opacity="1" points="156.636902,67.961929 156.203751,67.957672 155.767319,67.962524 155.327637,67.976578 154.884827,67.999969 154.438919,68.032745 153.990005,68.075020 153.538177,68.126907 153.083466,68.188454 152.625977,68.259796 152.165771,68.341003 151.702942,68.432190 151.237518,68.533424 151.206360,68.540771 151.175751,68.548347 151.145599,68.556084 151.115784,68.563957 151.086243,68.571945 151.056824,68.579979 151.027451,68.588013 150.998032,68.596001 150.968445,68.603920 150.938583,68.611725 150.908356,68.619370 150.877625,68.626808 150.359283,69.134399 149.831238,69.642151 149.293762,70.149879 148.747162,70.657448 148.191681,71.164673 147.627594,71.671371 147.055176,72.177429 146.474701,72.682617 145.886444,73.186798 145.290680,73.689812 144.687683,74.191521 144.077698,74.691673 144.283432,75.566025 144.506958,76.446327 144.750031,77.332321 145.014496,78.223824 145.302124,79.120621 145.614731,80.022507 145.954102,80.929253 146.322021,81.840652 146.720306,82.756508 147.150757,83.676613 147.615173,84.600723 148.115372,85.528671 149.002106,87.082169 149.860443,88.524330 150.688263,89.869141 151.483551,91.130661 152.244232,92.322937 152.968246,93.459984 153.653534,94.555847 154.298019,95.624588 154.899673,96.680199 155.456421,97.736740 155.966187,98.808250 156.426941,99.908752 156.832214,101.046928 157.175827,102.230286 157.456146,103.471115 157.671478,104.781708 157.820175,106.174347 157.900574,107.661346 157.911011,109.254974 157.849838,110.967545 157.715363,112.811340 157.505951,114.798660 157.219910,116.941795 156.855606,119.253036 156.246155,122.240074 155.421753,125.242432 154.385895,128.246216 153.142059,131.237549 151.693710,134.202530 150.044327,137.127289 148.197372,139.997925 146.156342,142.800537 143.924683,145.521286 141.505890,148.146240 138.903427,150.661530 136.120743,153.053284 138.321411,152.358276 140.462936,151.575836 142.540939,150.710083 144.551086,149.765106 146.489014,148.745010 148.350388,147.653915 150.130829,146.495911 151.826004,145.275116 153.431564,143.995636 154.943146,142.661560 156.356384,141.277008 157.666962,139.846100 158.950668,138.333237 160.092041,136.924316 161.099579,135.609772 161.981781,134.380051 162.747101,133.225601 163.404053,132.136887 163.961090,131.104355 164.426727,130.118439 164.809433,129.169601 165.117676,128.248291 165.359970,127.344978 165.544769,126.450096 165.679184,125.547745 165.769516,124.622787 165.822983,123.666946 165.846832,122.671906 165.848267,121.629402 165.834518,120.531143 165.812805,119.368828 165.790344,118.134171 165.774368,116.818901 165.772095,115.414703 165.790741,113.913315 165.837540,112.306427 165.893616,111.246521 165.979187,110.208664 166.092499,109.192566 166.231842,108.197929 166.395447,107.224480 166.581604,106.271927 166.788544,105.339973 167.014511,104.428345 167.257812,103.536743 167.516663,102.664902 167.789337,101.812508 168.074066,100.979317 168.079559,100.963768 168.094711,100.920784 168.117615,100.855850 168.146332,100.774452 168.178894,100.682083 168.213425,100.584221 168.247955,100.486359 168.280518,100.393990 168.309235,100.312592 168.332138,100.247658 168.347290,100.204674 168.352798,100.189117 168.422180,100.180008 168.491577,100.170906 168.560974,100.161804 168.630356,100.152695 168.699753,100.143593 168.769135,100.134491 168.838531,100.125381 168.907913,100.116280 168.977295,100.107178 169.046692,100.098068 169.116089,100.088966 169.185516,100.079865 171.026978,99.819847 172.829880,99.523026 174.585449,99.191444 176.284866,98.827141 177.919373,98.432152 179.480194,98.008530 180.958496,97.558296 182.345551,97.083504 183.632553,96.586197 184.810715,96.068405 185.871246,95.532181 186.805359,94.979553 186.452271,93.749542 185.955490,92.565674 185.322266,91.427284 184.559845,90.333710 183.675446,89.284317 182.676331,88.278419 181.569763,87.315376 180.362961,86.394516 179.063156,85.515198 177.677628,84.676735 176.213593,83.878510 174.678284,83.119812 174.666519,83.114273 174.634003,83.098915 174.584869,83.075729 174.523254,83.046661 174.453369,83.013680 174.379303,82.978729 174.305252,82.943779 174.235352,82.910797 174.173767,82.881729 174.124634,82.858543 174.092102,82.843185 174.080338,82.837624 174.067841,82.783997 174.055344,82.730347 174.042847,82.676712 174.030334,82.623070 174.017853,82.569427 174.005341,82.515793 173.992844,82.462143 173.980347,82.408493 173.967834,82.354866 173.955353,82.301216 173.942841,82.247589 173.930389,82.193916 173.336960,80.122673 172.557892,78.185783 171.602661,76.391258 170.480698,74.747040 169.201477,73.261116 167.774414,71.941475 166.208984,70.796082 164.514633,69.832901 162.700790,69.059921 160.776917,68.485107 158.752472,68.116447 156.742676,67.969643" />
				<polygon stroke="#000000" stroke-opacity="1" fill="none" stroke-linecap="round" stroke-width="2" points="156.636902,67.961929 156.203751,67.957672 155.767319,67.962524 155.327637,67.976578 154.884827,67.999969 154.438919,68.032745 153.990005,68.075020 153.538177,68.126907 153.083466,68.188454 152.625977,68.259796 152.165771,68.341003 151.702942,68.432190 151.237518,68.533424 151.206360,68.540771 151.175751,68.548347 151.145599,68.556084 151.115784,68.563957 151.086243,68.571945 151.056824,68.579979 151.027451,68.588013 150.998032,68.596001 150.968445,68.603920 150.938583,68.611725 150.908356,68.619370 150.877625,68.626808 150.359283,69.134399 149.831238,69.642151 149.293762,70.149879 148.747162,70.657448 148.191681,71.164673 147.627594,71.671371 147.055176,72.177429 146.474701,72.682617 145.886444,73.186798 145.290680,73.689812 144.687683,74.191521 144.077698,74.691673 144.283432,75.566025 144.506958,76.446327 144.750031,77.332321 145.014496,78.223824 145.302124,79.120621 145.614731,80.022507 145.954102,80.929253 146.322021,81.840652 146.720306,82.756508 147.150757,83.676613 147.615173,84.600723 148.115372,85.528671 149.002106,87.082169 149.860443,88.524330 150.688263,89.869141 151.483551,91.130661 152.244232,92.322937 152.968246,93.459984 153.653534,94.555847 154.298019,95.624588 154.899673,96.680199 155.456421,97.736740 155.966187,98.808250 156.426941,99.908752 156.832214,101.046928 157.175827,102.230286 157.456146,103.471115 157.671478,104.781708 157.820175,106.174347 157.900574,107.661346 157.911011,109.254974 157.849838,110.967545 157.715363,112.811340 157.505951,114.798660 157.219910,116.941795 156.855606,119.253036 156.246155,122.240074 155.421753,125.242432 154.385895,128.246216 153.142059,131.237549 151.693710,134.202530 150.044327,137.127289 148.197372,139.997925 146.156342,142.800537 143.924683,145.521286 141.505890,148.146240 138.903427,150.661530 136.120743,153.053284 138.321411,152.358276 140.462936,151.575836 142.540939,150.710083 144.551086,149.765106 146.489014,148.745010 148.350388,147.653915 150.130829,146.495911 151.826004,145.275116 153.431564,143.995636 154.943146,142.661560 156.356384,141.277008 157.666962,139.846100 158.950668,138.333237 160.092041,136.924316 161.099579,135.609772 161.981781,134.380051 162.747101,133.225601 163.404053,132.136887 163.961090,131.104355 164.426727,130.118439 164.809433,129.169601 165.117676,128.248291 165.359970,127.344978 165.544769,126.450096 165.679184,125.547745 165.769516,124.622787 165.822983,123.666946 165.846832,122.671906 165.848267,121.629402 165.834518,120.531143 165.812805,119.368828 165.790344,118.134171 165.774368,116.818901 165.772095,115.414703 165.790741,113.913315 165.837540,112.306427 165.893616,111.246521 165.979187,110.208664 166.092499,109.192566 166.231842,108.197929 166.395447,107.224480 166.581604,106.271927 166.788544,105.339973 167.014511,104.428345 167.257812,103.536743 167.516663,102.664902 167.789337,101.812508 168.074066,100.979317 168.079559,100.963768 168.094711,100.920784 168.117615,100.855850 168.146332,100.774452 168.178894,100.682083 168.213425,100.584221 168.247955,100.486359 168.280518,100.393990 168.309235,100.312592 168.332138,100.247658 168.347290,100.204674 168.352798,100.189117 168.422180,100.180008 168.491577,100.170906 168.560974,100.161804 168.630356,100.152695 168.699753,100.143593 168.769135,100.134491 168.838531,100.125381 168.907913,100.116280 168.977295,100.107178 169.046692,100.098068 169.116089,100.088966 169.185516,100.079865 171.026978,99.819847 172.829880,99.523026 174.585449,99.191444 176.284866,98.827141 177.919373,98.432152 179.480194,98.008530 180.958496,97.558296 182.345551,97.083504 183.632553,96.586197 184.810715,96.068405 185.871246,95.532181 186.805359,94.979553 186.452271,93.749542 185.955490,92.565674 185.322266,91.427284 184.559845,90.333710 183.675446,89.284317 182.676331,88.278419 181.569763,87.315376 180.362961,86.394516 179.063156,85.515198 177.677628,84.676735 176.213593,83.878510 174.678284,83.119812 174.666519,83.114273 174.634003,83.098915 174.584869,83.075729 174.523254,83.046661 174.453369,83.013680 174.379303,82.978729 174.305252,82.943779 174.235352,82.910797 174.173767,82.881729 174.124634,82.858543 174.092102,82.843185 174.080338,82.837624 174.067841,82.783997 174.055344,82.730347 174.042847,82.676712 174.030334,82.623070 174.017853,82.569427 174.005341,82.515793 173.992844,82.462143 173.980347,82.408493 173.967834,82.354866 173.955353,82.301216 173.942841,82.247589 173.930389,82.193916 173.336960,80.122673 172.557892,78.185783 171.602661,76.391258 170.480698,74.747040 169.201477,73.261116 167.774414,71.941475 166.208984,70.796082 164.514633,69.832901 162.700790,69.059921 160.776917,68.485107 158.752472,68.116447 156.742676,67.969643" />
				<polygon fill="#FEFEFE" stroke="none" fill-opacity="1" points="160.956757,78.513290 161.067719,78.514618 161.178467,78.518806 161.288986,78.525856 161.399200,78.535721 161.509033,78.548447 161.618484,78.563980 161.727478,78.582344 161.835953,78.603516 161.943878,78.627480 162.051178,78.654251 162.157806,78.683807 162.263733,78.716125 162.534775,78.812897 162.797318,78.927040 163.050659,79.057938 163.294098,79.204994 163.526932,79.367615 163.748474,79.545181 163.958008,79.737137 164.154877,79.942841 164.338318,80.161697 164.507690,80.393120 164.662292,80.636490 164.801361,80.891212 164.923584,81.154999 165.027771,81.425056 165.113831,81.700493 165.181702,81.980370 165.231293,82.263748 165.262573,82.549728 165.275452,82.837349 165.269867,83.125717 165.245728,83.413879 165.202988,83.700912 165.141571,83.985901 165.061371,84.267883 164.963104,84.544113 164.847839,84.811905 164.716156,85.070526 164.568665,85.319290 164.405975,85.557472 164.228653,85.784340 164.037308,85.999191 163.832550,86.201324 163.614960,86.390007 163.385132,86.564529 163.143677,86.724167 162.891174,86.868187 162.629990,86.995102 162.362793,87.103775 162.090500,87.194122 161.814026,87.266068 161.534286,87.319519 161.252182,87.354378 160.968658,87.370605 160.684601,87.368073 160.400940,87.346725 160.118591,87.306473 159.838470,87.247215 159.561493,87.168892 159.290451,87.072121 159.027924,86.957977 158.774582,86.827080 158.531128,86.680023 158.298309,86.517380 158.076752,86.339790 157.867218,86.147842 157.670364,85.942123 157.486908,85.723236 157.317535,85.491783 157.162949,85.248367 157.023865,84.993599 156.901733,84.729874 156.797623,84.459846 156.711609,84.184433 156.643784,83.904602 156.594177,83.621223 156.562912,83.335266 156.550018,83.047646 156.555588,82.759300 156.579681,82.471138 156.622375,82.184120 156.683762,81.899139 156.763855,81.617134 156.841400,81.394707 156.930069,81.177406 157.029602,80.965645 157.139709,80.759796 157.260101,80.560272 157.390503,80.367462 157.530624,80.181747 157.680176,80.003555 157.838867,79.833252 158.006439,79.671234 158.182587,79.517921 158.367035,79.373680 158.558685,79.239532 158.756256,79.116241 158.959274,79.003967 159.167297,78.902817 159.379852,78.812988 159.596497,78.734596 159.816803,78.667816 160.040253,78.612793 160.266449,78.569687 160.494904,78.538628 160.725143,78.519791 160.945175,78.513626" />
				<polygon stroke="#000000" stroke-opacity="1" fill="none" stroke-linecap="round" stroke-width="2" points="160.956757,78.513290 161.067719,78.514618 161.178467,78.518806 161.288986,78.525856 161.399200,78.535721 161.509033,78.548447 161.618484,78.563980 161.727478,78.582344 161.835953,78.603516 161.943878,78.627480 162.051178,78.654251 162.157806,78.683807 162.263733,78.716125 162.534775,78.812897 162.797318,78.927040 163.050659,79.057938 163.294098,79.204994 163.526932,79.367615 163.748474,79.545181 163.958008,79.737137 164.154877,79.942841 164.338318,80.161697 164.507690,80.393120 164.662292,80.636490 164.801361,80.891212 164.923584,81.154999 165.027771,81.425056 165.113831,81.700493 165.181702,81.980370 165.231293,82.263748 165.262573,82.549728 165.275452,82.837349 165.269867,83.125717 165.245728,83.413879 165.202988,83.700912 165.141571,83.985901 165.061371,84.267883 164.963104,84.544113 164.847839,84.811905 164.716156,85.070526 164.568665,85.319290 164.405975,85.557472 164.228653,85.784340 164.037308,85.999191 163.832550,86.201324 163.614960,86.390007 163.385132,86.564529 163.143677,86.724167 162.891174,86.868187 162.629990,86.995102 162.362793,87.103775 162.090500,87.194122 161.814026,87.266068 161.534286,87.319519 161.252182,87.354378 160.968658,87.370605 160.684601,87.368073 160.400940,87.346725 160.118591,87.306473 159.838470,87.247215 159.561493,87.168892 159.290451,87.072121 159.027924,86.957977 158.774582,86.827080 158.531128,86.680023 158.298309,86.517380 158.076752,86.339790 157.867218,86.147842 157.670364,85.942123 157.486908,85.723236 157.317535,85.491783 157.162949,85.248367 157.023865,84.993599 156.901733,84.729874 156.797623,84.459846 156.711609,84.184433 156.643784,83.904602 156.594177,83.621223 156.562912,83.335266 156.550018,83.047646 156.555588,82.759300 156.579681,82.471138 156.622375,82.184120 156.683762,81.899139 156.763855,81.617134 156.841400,81.394707 156.930069,81.177406 157.029602,80.965645 157.139709,80.759796 157.260101,80.560272 157.390503,80.367462 157.530624,80.181747 157.680176,80.003555 157.838867,79.833252 158.006439,79.671234 158.182587,79.517921 158.367035,79.373680 158.558685,79.239532 158.756256,79.116241 158.959274,79.003967 159.167297,78.902817 159.379852,78.812988 159.596497,78.734596 159.816803,78.667816 160.040253,78.612793 160.266449,78.569687 160.494904,78.538628 160.725143,78.519791 160.945175,78.513626" />
			</g>
		</g>
	</g>
</svg>
